<svg width="18" height="19" viewBox="0 0 18 19" fill="none" xmlns="http://www.w3.org/2000/svg">
<path fill-rule="evenodd" clip-rule="evenodd" d="M3.75 4.49609C3.33579 4.49609 3 4.83188 3 5.24609V15.7461C3 16.1603 3.33579 16.4961 3.75 16.4961H14.25C14.6642 16.4961 15 16.1603 15 15.7461V5.24609C15 4.83188 14.6642 4.49609 14.25 4.49609H3.75ZM1.5 5.24609C1.5 4.00345 2.50736 2.99609 3.75 2.99609H14.25C15.4926 2.99609 16.5 4.00345 16.5 5.24609V15.7461C16.5 16.9887 15.4926 17.9961 14.25 17.9961H3.75C2.50736 17.9961 1.5 16.9887 1.5 15.7461V5.24609Z" fill="#465953"/>
<path fill-rule="evenodd" clip-rule="evenodd" d="M1.5 8.24609C1.5 7.83188 1.83579 7.49609 2.25 7.49609H15.75C16.1642 7.49609 16.5 7.83188 16.5 8.24609C16.5 8.66031 16.1642 8.99609 15.75 8.99609H2.25C1.83579 8.99609 1.5 8.66031 1.5 8.24609Z" fill="#465953"/>
<path fill-rule="evenodd" clip-rule="evenodd" d="M12 1.49609C12.4142 1.49609 12.75 1.83188 12.75 2.24609V5.24609C12.75 5.66031 12.4142 5.99609 12 5.99609C11.5858 5.99609 11.25 5.66031 11.25 5.24609V2.24609C11.25 1.83188 11.5858 1.49609 12 1.49609Z" fill="#587169"/>
<path fill-rule="evenodd" clip-rule="evenodd" d="M6 1.49609C6.41421 1.49609 6.75 1.83188 6.75 2.24609V5.24609C6.75 5.66031 6.41421 5.99609 6 5.99609C5.58579 5.99609 5.25 5.66031 5.25 5.24609V2.24609C5.25 1.83188 5.58579 1.49609 6 1.49609Z" fill="#587169"/>
</svg>
