<svg width="18" height="19" viewBox="0 0 18 19" fill="none" xmlns="http://www.w3.org/2000/svg">
<path fill-rule="evenodd" clip-rule="evenodd" d="M3.75 4.49609C3.55109 4.49609 3.36032 4.57511 3.21967 4.71576C3.08356 4.85188 3.00516 5.03492 3.00025 5.22687C3.17274 7.95982 4.33619 10.5364 6.27295 12.4731C8.20971 14.4099 10.7863 15.5734 13.5192 15.7458C13.7112 15.7409 13.8942 15.6625 14.0303 15.5264C14.171 15.3858 14.25 15.195 14.25 14.9961V12.5039L11.5645 11.4297L10.7681 12.757C10.5673 13.0917 10.1433 13.2164 9.79326 13.0437C8.01656 12.1675 6.57859 10.7295 5.70236 8.95283C5.52971 8.60276 5.65443 8.17879 5.98913 7.97797L7.31643 7.1816L6.24223 4.49609H3.75ZM2.15901 3.6551C2.58097 3.23315 3.15326 2.99609 3.75 2.99609H6.75C7.05668 2.99609 7.33246 3.18281 7.44636 3.46755L8.94636 7.21755C9.08307 7.55934 8.95153 7.94982 8.63587 8.13921L7.38037 8.89251C7.99827 9.90023 8.84586 10.7478 9.85358 11.3657L10.6069 10.1102C10.7963 9.79457 11.1868 9.66302 11.5285 9.79974L15.2785 11.2997C15.5633 11.4136 15.75 11.6894 15.75 11.9961V14.9961C15.75 15.5928 15.5129 16.1651 15.091 16.5871C14.669 17.009 14.0967 17.2461 13.5 17.2461C13.4848 17.2461 13.4697 17.2456 13.4545 17.2447C10.3461 17.0558 7.41432 15.7358 5.21229 13.5338C3.01027 11.3318 1.69028 8.39999 1.50138 5.29159C1.50046 5.27644 1.5 5.26127 1.5 5.24609C1.5 4.64936 1.73705 4.07706 2.15901 3.6551Z" fill="#465953"/>
<path fill-rule="evenodd" clip-rule="evenodd" d="M10.5 5.99609C10.5 5.58188 10.8358 5.24609 11.25 5.24609C11.8467 5.24609 12.419 5.48315 12.841 5.9051C13.2629 6.32706 13.5 6.89936 13.5 7.49609C13.5 7.91031 13.1642 8.24609 12.75 8.24609C12.3358 8.24609 12 7.91031 12 7.49609C12 7.29718 11.921 7.10642 11.7803 6.96576C11.6397 6.82511 11.4489 6.74609 11.25 6.74609C10.8358 6.74609 10.5 6.41031 10.5 5.99609Z" fill="#465953"/>
<path fill-rule="evenodd" clip-rule="evenodd" d="M10.5 2.99609C10.5 2.58188 10.8358 2.24609 11.25 2.24609C12.6424 2.24609 13.9777 2.79922 14.9623 3.78378C15.9469 4.76835 16.5 6.10371 16.5 7.49609C16.5 7.91031 16.1642 8.24609 15.75 8.24609C15.3358 8.24609 15 7.91031 15 7.49609C15 6.50153 14.6049 5.5477 13.9017 4.84444C13.1984 4.14118 12.2446 3.74609 11.25 3.74609C10.8358 3.74609 10.5 3.41031 10.5 2.99609Z" fill="#465953"/>
</svg>
